<svg width="393" height="76" viewBox="0 0 393 76" fill="none" xmlns="http://www.w3.org/2000/svg">
<path d="M18.1182 44.0161C15.6823 44.0161 13.3195 43.7299 11.0298 43.1635C8.75226 42.5972 6.69396 41.7934 4.8427 40.752C2.99145 39.6985 1.4873 38.4562 0.336354 37.0252C0.0562299 36.672 -0.0472955 36.2639 0.0196912 35.8072C0.0988564 35.3566 0.348534 34.906 0.774809 34.4675L6.88883 28.3048C7.22985 27.9637 7.64395 27.8115 8.13112 27.8419C8.61829 27.8602 9.09329 28.0551 9.56828 28.4266C10.7862 29.3522 12.0772 30.1499 13.4413 30.8137C14.8054 31.4836 16.1756 31.8124 17.5579 31.8124C18.7393 31.8124 19.5919 31.6784 20.1156 31.3983C20.6515 31.1243 20.9194 30.7528 20.9194 30.2778C20.9194 29.9551 20.8342 29.6688 20.6758 29.4253C20.5114 29.1817 20.213 28.9503 19.7746 28.7189C19.3361 28.4935 18.7028 28.2317 17.8746 27.9394C17.0464 27.6471 15.9624 27.3061 14.6349 26.9163C12.3269 26.2525 10.3538 25.5218 8.71573 24.724C7.07152 23.9141 5.73179 23.0068 4.69655 21.9959C3.67349 20.9728 2.92446 19.7792 2.45556 18.4151C1.98056 17.0511 1.74916 15.4799 1.74916 13.6896C1.74916 10.931 2.40684 8.53772 3.72221 6.50377C5.03757 4.45764 6.90101 2.88651 9.32469 1.77819C11.7423 0.657695 14.5983 0.0974464 17.8989 0.0974464C19.5371 0.0974464 21.163 0.310585 22.7707 0.730771C24.3905 1.15705 25.8886 1.74165 27.2527 2.48459C28.6289 3.21535 29.7677 4.06182 30.6629 5.01789C31.0648 5.45635 31.2779 5.9557 31.2962 6.50377C31.3084 7.05793 31.1074 7.57555 30.6872 8.06272L25.7424 13.7626C25.1578 14.4447 24.5854 14.7735 24.0373 14.737C23.4832 14.6883 22.8742 14.469 22.2104 14.0793C21.3152 13.5434 20.4322 13.1171 19.5553 12.7883C18.6784 12.4473 17.905 12.2768 17.2413 12.2768C16.2974 12.2768 15.5666 12.4168 15.049 12.6909C14.5435 12.9527 14.2939 13.3364 14.2939 13.8357C14.2939 14.536 14.9089 15.145 16.1451 15.6626C17.3935 16.1863 19.0803 16.7344 21.2117 17.319C22.6245 17.7087 23.9703 18.1411 25.2552 18.61C26.5341 19.085 27.7216 19.627 28.8116 20.242C29.8956 20.8632 30.8395 21.6061 31.6372 22.483C32.4471 23.36 33.0744 24.4196 33.5128 25.6497C33.9635 26.8859 34.1949 28.3474 34.1949 30.0342C34.1949 32.1778 33.7869 34.1204 32.9769 35.8559C32.1609 37.5793 31.0282 39.0469 29.5667 40.2649C28.1052 41.4706 26.3879 42.3962 24.4271 43.0417C22.4784 43.6872 20.3713 44.0161 18.1182 44.0161Z" fill="white"/>
<path d="M83.9366 41.4341C84.0157 42.0674 83.8757 42.5302 83.5225 42.8225C83.1632 43.1026 82.6943 43.2366 82.1097 43.2366H72.8047C72.2688 43.2366 71.8547 43.1087 71.5624 42.8469C71.2701 42.5728 71.0874 42.1344 71.0265 41.5315L69.8573 29.7419L62.3548 42.2866C61.9955 42.9078 61.6241 43.3401 61.2343 43.602C60.8568 43.876 60.4061 44.0161 59.8702 44.0161H58.7497C58.226 44.0161 57.7754 43.876 57.3857 43.602C57.0081 43.3401 56.6366 42.9078 56.2652 42.2866L48.7627 29.7419L47.5935 41.5315C47.5448 42.1344 47.3621 42.5728 47.0576 42.8469C46.7653 43.1087 46.3512 43.2366 45.8153 43.2366H36.5346C35.95 43.2366 35.475 43.1026 35.1218 42.8225C34.7626 42.5302 34.6164 42.0674 34.6834 41.4341L39.0923 1.72946C39.2385 0.578518 39.8292 0 40.8705 0H42.9166C43.5134 0 43.9275 0.164421 44.1589 0.487173C44.4025 0.816014 44.6704 1.21793 44.9627 1.70511L59.31 25.6984L73.6816 1.70511C73.9556 1.21793 74.2175 0.816014 74.4611 0.487173C74.7168 0.164421 75.1431 0 75.7277 0H77.7495C78.7847 0 79.3815 0.578518 79.5277 1.72946L83.9366 41.4341Z" fill="white"/>
<path d="M125.611 41.3123C125.855 41.8482 125.867 42.311 125.66 42.7007C125.447 43.0783 125.014 43.261 124.369 43.261H114.187C113.681 43.261 113.225 43.1087 112.823 42.7982C112.433 42.4937 112.147 42.11 111.97 41.6533L110.996 38.7546H98.0857L97.1114 41.6289C96.9652 42.0552 96.6973 42.4267 96.3075 42.7494C95.9178 43.0783 95.4428 43.2366 94.8947 43.2366H84.7372C84.116 43.2366 83.6898 43.06 83.4462 42.7007C83.2026 42.3293 83.2026 41.8603 83.4462 41.2879L100.765 1.72948C101.009 1.19359 101.338 0.791669 101.764 0.511543C102.202 0.237509 102.647 0.0974464 103.104 0.0974464H106.124C106.642 0.0974464 107.098 0.261868 107.488 0.584619C107.89 0.895193 108.195 1.27884 108.389 1.72948L125.611 41.3123ZM101.277 29.3765H107.829L104.541 19.7305L101.277 29.3765Z" fill="white"/>
<path d="M156.397 31.3252L161.756 41.1905C162.061 41.7751 162.103 42.2622 161.878 42.652C161.665 43.0417 161.232 43.2366 160.587 43.2366H150.161C149.772 43.2366 149.382 43.1026 148.992 42.8225C148.603 42.5302 148.31 42.1648 148.115 41.7264L144.729 34.979H139.005V41.4828C139.005 42.0065 138.823 42.4267 138.469 42.7494C138.11 43.0783 137.665 43.2366 137.13 43.2366H127.995C127.471 43.2366 127.045 43.0783 126.704 42.7494C126.375 42.4267 126.217 42.0065 126.217 41.4828V2.65509C126.217 2.13747 126.375 1.71729 126.704 1.38844C127.045 1.04742 127.471 0.876911 127.995 0.876911H130.358C131.284 0.876911 132.191 0.876911 133.086 0.876911C133.993 0.876911 134.803 0.876911 135.522 0.876911C136.253 0.876911 136.801 0.876911 137.178 0.876911H144.729C147.36 0.876911 149.778 1.30319 151.988 2.14356C154.193 2.99002 156.111 4.1836 157.737 5.72428C159.357 7.27106 160.617 9.09795 161.513 11.205C162.402 13.2998 162.852 15.6017 162.852 18.0985C162.852 20.8754 162.28 23.4026 161.147 25.674C160.008 27.9333 158.425 29.815 156.397 31.3252ZM139.005 12.0332V24.383H143.877C145.077 24.383 146.142 24.1272 147.068 23.6035C148.006 23.0859 148.749 22.3491 149.285 21.3869C149.82 20.4308 150.088 19.3164 150.088 18.0498C150.088 16.8805 149.82 15.8514 149.285 14.9562C148.749 14.0488 148.006 13.3364 147.068 12.8126C146.142 12.295 145.077 12.0332 143.877 12.0332H139.005Z" fill="white"/>
<path d="M162.868 10.1819V2.67945C162.868 2.11311 163.02 1.67466 163.331 1.36408C163.654 1.04133 164.092 0.876911 164.646 0.876911H194.437C195.003 0.876911 195.442 1.04133 195.752 1.36408C196.075 1.69292 196.24 2.13138 196.24 2.67945V10.1819C196.24 10.7543 196.075 11.205 195.752 11.546C195.442 11.8748 195.003 12.0332 194.437 12.0332H185.887V41.4584C185.887 42.0126 185.729 42.451 185.424 42.7738C185.114 43.0844 184.669 43.2366 184.085 43.2366H174.926C174.341 43.2366 173.884 43.0844 173.562 42.7738C173.251 42.451 173.099 42.0126 173.099 41.4584V12.0332H164.646C164.111 12.0332 163.678 11.8748 163.355 11.546C163.027 11.2232 162.868 10.7665 162.868 10.1819Z" fill="white"/>
<path d="M213.928 44.0161C211.493 44.0161 209.13 43.7299 206.84 43.1635C204.563 42.5972 202.504 41.7934 200.653 40.752C198.802 39.6985 197.298 38.4562 196.147 37.0252C195.866 36.672 195.763 36.2639 195.83 35.8072C195.909 35.3566 196.159 34.906 196.585 34.4675L202.699 28.3048C203.04 27.9637 203.454 27.8115 203.941 27.8419C204.429 27.8602 204.904 28.0551 205.379 28.4266C206.596 29.3522 207.887 30.1499 209.252 30.8137C210.616 31.4836 211.986 31.8124 213.368 31.8124C214.55 31.8124 215.402 31.6784 215.926 31.3983C216.462 31.1243 216.73 30.7528 216.73 30.2778C216.73 29.9551 216.644 29.6688 216.486 29.4253C216.322 29.1817 216.023 28.9503 215.585 28.7189C215.146 28.4935 214.513 28.2317 213.685 27.9394C212.857 27.6471 211.773 27.3061 210.445 26.9163C208.137 26.2525 206.164 25.5218 204.526 24.724C202.882 23.9141 201.542 23.0068 200.507 21.9959C199.484 20.9728 198.735 19.7792 198.266 18.4151C197.791 17.0511 197.559 15.4799 197.559 13.6896C197.559 10.931 198.217 8.53772 199.532 6.50377C200.848 4.45764 202.711 2.88651 205.135 1.77819C207.553 0.657695 210.409 0.0974464 213.709 0.0974464C215.347 0.0974464 216.973 0.310585 218.581 0.730771C220.201 1.15705 221.699 1.74165 223.063 2.48459C224.439 3.21535 225.578 4.06182 226.473 5.01789C226.875 5.45635 227.088 5.9557 227.106 6.50377C227.119 7.05793 226.918 7.57555 226.497 8.06272L221.553 13.7626C220.968 14.4447 220.396 14.7735 219.848 14.737C219.293 14.6883 218.684 14.469 218.021 14.0793C217.125 13.5434 216.242 13.1171 215.366 12.7883C214.489 12.4473 213.715 12.2768 213.051 12.2768C212.108 12.2768 211.377 12.4168 210.859 12.6909C210.354 12.9527 210.104 13.3364 210.104 13.8357C210.104 14.536 210.719 15.145 211.955 15.6626C213.204 16.1863 214.891 16.7344 217.022 17.319C218.435 17.7087 219.781 18.1411 221.065 18.61C222.344 19.085 223.532 19.627 224.622 20.242C225.706 20.8632 226.65 21.6061 227.447 22.483C228.257 23.36 228.885 24.4196 229.323 25.6497C229.774 26.8859 230.005 28.3474 230.005 30.0342C230.005 32.1778 229.597 34.1204 228.787 35.8559C227.971 37.5793 226.838 39.0469 225.377 40.2649C223.915 41.4706 222.198 42.3962 220.237 43.0417C218.289 43.6872 216.182 44.0161 213.928 44.0161Z" fill="white"/>
<path d="M257.191 29.5714C257.727 29.2182 258.262 29.0538 258.798 29.0842C259.346 29.1208 259.736 29.3278 259.968 29.7176L265.327 37.9751C265.534 38.2674 265.558 38.6267 265.4 39.0469C265.235 39.4549 264.937 39.8203 264.498 40.1431C263.731 40.6668 262.842 41.16 261.819 41.6289C260.808 42.1039 259.748 42.518 258.628 42.8712C257.507 43.2305 256.387 43.5046 255.266 43.6994C254.146 43.9065 253.105 44.0161 252.148 44.0161C249.627 44.0161 247.252 43.6568 245.011 42.9443C242.77 42.2318 240.712 41.2148 238.849 39.8995C236.997 38.5719 235.39 36.9947 234.026 35.1739C232.674 33.3592 231.626 31.3435 230.883 29.133C230.134 26.9102 229.763 24.5657 229.763 22.0933C229.763 19.627 230.134 17.2825 230.883 15.0537C231.626 12.8309 232.674 10.8092 234.026 8.98835C235.39 7.17363 236.997 5.59641 238.849 4.26277C240.712 2.93523 242.77 1.91217 245.011 1.19359C247.252 0.462826 249.627 0.0974464 252.148 0.0974464C253.086 0.0974464 254.122 0.207061 255.242 0.414109C256.363 0.608978 257.495 0.895192 258.652 1.26666C259.803 1.62595 260.905 2.04614 261.965 2.53331C263.019 3.02048 263.95 3.56855 264.766 4.16534C265.156 4.44547 265.387 4.79258 265.473 5.21276C265.57 5.63904 265.503 6.0166 265.278 6.35762L259.87 14.5421C259.627 14.9014 259.249 15.1024 258.75 15.1511C258.262 15.1876 257.8 15.0232 257.361 14.6639C256.905 14.3229 256.369 14.0245 255.754 13.7626C255.151 13.4886 254.523 13.2694 253.878 13.105C253.245 12.9284 252.666 12.837 252.148 12.837C250.797 12.837 249.542 13.0745 248.373 13.5434C247.216 14.0001 246.205 14.6517 245.328 15.4921C244.463 16.3386 243.781 17.319 243.282 18.4395C242.795 19.56 242.551 20.7779 242.551 22.0933C242.551 23.3965 242.795 24.6022 243.282 25.7227C243.781 26.8432 244.463 27.8176 245.328 28.6458C246.205 29.474 247.216 30.1195 248.373 30.5701C249.542 31.0268 250.797 31.2522 252.148 31.2522C252.636 31.2522 253.178 31.1791 253.781 31.0329C254.377 30.8746 254.98 30.6615 255.583 30.3996C256.18 30.1438 256.716 29.8637 257.191 29.5714Z" fill="white"/>
<path d="M297.313 31.3252L302.671 41.1905C302.976 41.7751 303.019 42.2622 302.793 42.652C302.58 43.0417 302.148 43.2366 301.502 43.2366H291.077C290.687 43.2366 290.297 43.1026 289.908 42.8225C289.518 42.5302 289.225 42.1648 289.031 41.7264L285.645 34.979H279.92V41.4828C279.92 42.0065 279.738 42.4267 279.385 42.7494C279.025 43.0783 278.581 43.2366 278.045 43.2366H268.91C268.387 43.2366 267.96 43.0783 267.619 42.7494C267.291 42.4267 267.132 42.0065 267.132 41.4828V2.65509C267.132 2.13747 267.291 1.71729 267.619 1.38844C267.96 1.04742 268.387 0.876911 268.91 0.876911H271.273C272.199 0.876911 273.106 0.876911 274.001 0.876911C274.909 0.876911 275.719 0.876911 276.437 0.876911C277.168 0.876911 277.716 0.876911 278.094 0.876911H285.645C288.276 0.876911 290.693 1.30319 292.904 2.14356C295.108 2.99002 297.026 4.1836 298.652 5.72428C300.272 7.27106 301.533 9.09795 302.428 11.205C303.317 13.2998 303.768 15.6017 303.768 18.0985C303.768 20.8754 303.195 23.4026 302.062 25.674C300.924 27.9333 299.34 29.815 297.313 31.3252ZM279.92 12.0332V24.383H284.792C285.992 24.383 287.058 24.1272 287.983 23.6035C288.921 23.0859 289.664 22.3491 290.2 21.3869C290.736 20.4308 291.004 19.3164 291.004 18.0498C291.004 16.8805 290.736 15.8514 290.2 14.9562C289.664 14.0488 288.921 13.3364 287.983 12.8126C287.058 12.295 285.992 12.0332 284.792 12.0332H279.92Z" fill="white"/>
<path d="M318.813 2.14356V41.9456C318.813 42.8103 318.386 43.2366 317.546 43.2366H307.34C306.475 43.2366 306.049 42.8103 306.049 41.9456V2.14356C306.049 1.30319 306.475 0.876911 307.34 0.876911H317.546C318.386 0.876911 318.813 1.30319 318.813 2.14356Z" fill="white"/>
<path d="M350.23 20.1202C351.558 20.577 352.739 21.2834 353.762 22.2394C354.798 23.1833 355.614 24.2856 356.198 25.5522C356.783 26.8067 357.075 28.1342 357.075 29.547C357.075 31.4653 356.661 33.2617 355.833 34.9303C355.005 36.5867 353.86 38.0421 352.398 39.2905C350.937 40.5267 349.232 41.495 347.283 42.1892C345.334 42.8895 343.221 43.2366 340.95 43.2366H323.363C322.955 43.2366 322.638 43.1331 322.413 42.9199C322.182 42.6946 322.072 42.3719 322.072 41.9456V2.14356C322.072 1.72337 322.182 1.40671 322.413 1.19357C322.638 0.986526 322.955 0.876911 323.363 0.876911H339.756C341.833 0.876911 343.775 1.1814 345.578 1.77818C347.381 2.38106 348.952 3.22752 350.304 4.31148C351.668 5.38326 352.727 6.63773 353.495 8.06271C354.256 9.49378 354.639 11.0345 354.639 12.6909C354.639 13.7505 354.451 14.7552 354.079 15.7113C353.702 16.6735 353.184 17.5321 352.52 18.2933C351.869 19.0424 351.107 19.6513 350.23 20.1202ZM342.484 14.6395C342.484 13.994 342.216 13.4399 341.681 12.9832C341.157 12.5325 340.517 12.3011 339.756 12.3011H334.86V17.1485H339.756C340.517 17.1485 341.157 16.9049 341.681 16.4177C342.216 15.9306 342.484 15.3399 342.484 14.6395ZM340.682 31.7637C341.346 31.7637 341.949 31.6358 342.484 31.3739C343.033 31.0999 343.465 30.7345 343.775 30.2778C344.098 29.8089 344.263 29.2791 344.263 28.6945C344.263 28.0307 344.098 27.4278 343.775 26.8919C343.465 26.3439 343.033 25.9115 342.484 25.6009C341.949 25.2782 341.346 25.1138 340.682 25.1138H334.86V31.7637H340.682Z" fill="white"/>
<path d="M390.27 31.1303C391.032 31.1303 391.634 31.3496 392.073 31.788C392.524 32.2143 392.755 32.7746 392.755 33.4688V41.4828C392.755 42.0065 392.591 42.4267 392.268 42.7494C391.939 43.0783 391.513 43.2366 390.977 43.2366H360.309C359.737 43.2366 359.292 43.0783 358.97 42.7494C358.659 42.4267 358.507 42.0065 358.507 41.4828V2.67945C358.507 2.11311 358.659 1.67466 358.97 1.36408C359.292 1.04133 359.737 0.876911 360.309 0.876911H390.417C390.983 0.876911 391.421 1.04133 391.732 1.36408C392.055 1.69292 392.219 2.13138 392.219 2.67945V11.1563C392.219 11.7409 392.055 12.1976 391.732 12.5203C391.421 12.8492 390.983 13.0075 390.417 13.0075H371.295V17.928H385.033C385.679 17.928 386.184 18.0985 386.544 18.4395C386.897 18.7805 387.079 19.2555 387.079 19.8523V25.5522C387.079 26.1368 386.897 26.5996 386.544 26.9407C386.184 27.2695 385.679 27.4278 385.033 27.4278H371.295V31.1303H390.27Z" fill="white"/>
<path d="M94.2271 74.0574C93.7704 74.0574 93.3076 73.9965 92.8387 73.8869C92.3637 73.7773 91.9252 73.5946 91.5233 73.351C91.1336 73.1074 90.7986 72.7786 90.5246 72.3523C90.2627 71.9321 90.0983 71.4145 90.0374 70.7933H91.8887C91.9983 71.2501 92.181 71.6094 92.4246 71.8651C92.6681 72.1087 92.9422 72.2792 93.2528 72.3767C93.5755 72.4741 93.8983 72.5228 94.2271 72.5228C94.7265 72.5228 95.1406 72.4254 95.4694 72.2305C95.8104 72.0235 95.9809 71.6824 95.9809 71.2074C95.9809 70.8847 95.8652 70.635 95.6399 70.4523C95.4268 70.2574 95.1527 70.1113 94.8117 70.0139C94.4707 69.9164 94.087 69.8312 93.6669 69.7459C93.2771 69.6485 92.8874 69.551 92.4976 69.4536C92.1079 69.344 91.7486 69.1857 91.4259 68.9908C91.097 68.7959 90.8412 68.5463 90.6464 68.2357C90.4515 67.9129 90.3541 67.4988 90.3541 66.9934C90.3541 66.3783 90.5002 65.8668 90.7925 65.4588C91.0848 65.0386 91.4807 64.7219 91.9861 64.5088C92.5037 64.3018 93.0822 64.1921 93.7156 64.1921C94.3306 64.1921 94.9091 64.3079 95.445 64.5332C95.9809 64.7463 96.4316 65.0691 96.8091 65.5075C97.1806 65.946 97.4242 66.5184 97.5399 67.2126H95.6886C95.5729 66.695 95.3293 66.3235 94.9579 66.0921C94.5986 65.8485 94.1662 65.7267 93.6669 65.7267C93.2284 65.7267 92.863 65.8242 92.5707 66.019C92.2784 66.2017 92.1323 66.4758 92.1323 66.8472C92.1323 67.1395 92.2297 67.3709 92.4246 67.5293C92.6316 67.6937 92.8996 67.8216 93.2284 67.919C93.5694 68.0165 93.9348 68.1139 94.3245 68.2113C94.7143 68.2966 95.1101 68.394 95.5181 68.5036C95.92 68.6193 96.2976 68.7838 96.6386 68.9908C96.9796 69.2039 97.2537 69.478 97.4668 69.819C97.6739 70.16 97.7835 70.5985 97.7835 71.1344C97.7835 72.0295 97.4668 72.742 96.8335 73.2779C96.2123 73.8016 95.3476 74.0574 94.2271 74.0574Z" fill="#176BFE"/>
<path d="M100.323 73.8869H98.5207V64.3626H101.492L103.465 71.7189L105.414 64.3626H108.41V73.8869H106.608V65.7267L104.342 73.8869H102.589L100.323 65.7754V73.8869Z" fill="#176BFE"/>
<path d="M110.616 73.8869H108.741L112.078 64.3626H114.051L117.412 73.8869H115.537L114.879 71.9382H111.25L110.616 73.8869ZM113.077 66.3357L111.761 70.3549H114.392L113.077 66.3357Z" fill="#176BFE"/>
<path d="M123.367 69.7703L125.072 73.8869H123.172L121.661 70.0869H119.542V73.8869H117.74V64.3626H121.832C122.429 64.3626 122.959 64.4601 123.415 64.6549C123.866 64.8498 124.219 65.1604 124.463 65.5806C124.718 65.9886 124.852 66.5245 124.852 67.1882C124.852 67.8094 124.712 68.3331 124.438 68.7715C124.176 69.21 123.817 69.5449 123.367 69.7703ZM121.588 65.9703H119.542V68.5036H121.588C122.076 68.5036 122.441 68.4001 122.684 68.1869C122.94 67.9799 123.074 67.6632 123.074 67.237C123.074 66.835 122.94 66.5245 122.684 66.3113C122.423 66.086 122.057 65.9703 121.588 65.9703Z" fill="#176BFE"/>
<path d="M129.692 73.8869H127.89V65.9703H124.991V64.3626H132.591V65.9703H129.692V73.8869Z" fill="#176BFE"/>
<path d="M139.301 73.8869H132.968V64.3626H139.301V65.9703H134.77V68.3331H138.838V69.9164H134.77V72.2792H139.301V73.8869Z" fill="#176BFE"/>
<path d="M145.728 69.7703L147.434 73.8869H145.534L144.023 70.0869H141.904V73.8869H140.102V64.3626H144.194C144.791 64.3626 145.32 64.4601 145.777 64.6549C146.228 64.8498 146.581 65.1604 146.825 65.5806C147.08 65.9886 147.214 66.5245 147.214 67.1882C147.214 67.8094 147.074 68.3331 146.8 68.7715C146.538 69.21 146.179 69.5449 145.728 69.7703ZM143.95 65.9703H141.904V68.5036H143.95C144.437 68.5036 144.803 68.4001 145.046 68.1869C145.302 67.9799 145.436 67.6632 145.436 67.237C145.436 66.835 145.302 66.5245 145.046 66.3113C144.785 66.086 144.419 65.9703 143.95 65.9703Z" fill="#176BFE"/>
<path d="M152.617 73.8869H150.815V64.3626H152.837L156.734 71.1831V64.3626H158.537V73.8869H156.49L152.617 67.0664V73.8869Z" fill="#176BFE"/>
<path d="M163.858 74.0574C163.079 74.0574 162.397 73.9234 161.812 73.6677C161.24 73.3936 160.765 73.0282 160.375 72.5715C159.997 72.1209 159.717 71.5972 159.522 71.0126C159.34 70.4158 159.254 69.7825 159.254 69.1126C159.254 68.4671 159.34 67.8459 159.522 67.2613C159.717 66.6645 159.997 66.1347 160.375 65.678C160.765 65.2091 161.24 64.8437 161.812 64.5819C162.397 64.3261 163.079 64.1921 163.858 64.1921C164.65 64.1921 165.344 64.3261 165.929 64.5819C166.513 64.8437 166.988 65.2091 167.366 65.678C167.737 66.1347 168.011 66.6645 168.194 67.2613C168.389 67.8459 168.486 68.4671 168.486 69.1126C168.486 69.7825 168.389 70.4158 168.194 71.0126C168.011 71.5972 167.737 72.1209 167.366 72.5715C166.988 73.0282 166.513 73.3936 165.929 73.6677C165.344 73.9234 164.65 74.0574 163.858 74.0574ZM163.858 72.4497C164.455 72.4497 164.96 72.3158 165.368 72.0356C165.77 71.7616 166.081 71.3719 166.294 70.8664C166.519 70.3671 166.635 69.7825 166.635 69.1126C166.635 68.4671 166.519 67.8947 166.294 67.4075C166.081 66.9081 165.77 66.5184 165.368 66.2383C164.96 65.9642 164.455 65.8242 163.858 65.8242C163.286 65.8242 162.793 65.9642 162.372 66.2383C161.964 66.5184 161.654 66.9081 161.447 67.4075C161.234 67.8947 161.13 68.4671 161.13 69.1126C161.13 69.7825 161.234 70.3671 161.447 70.8664C161.654 71.3719 161.964 71.7616 162.372 72.0356C162.793 72.3158 163.286 72.4497 163.858 72.4497Z" fill="#176BFE"/>
<path d="M173.206 73.8869H171.404V65.9703H168.505V64.3626H176.105V65.9703H173.206V73.8869Z" fill="#176BFE"/>
<path d="M182.815 73.8869H176.482V64.3626H182.815V65.9703H178.284V68.3331H182.352V69.9164H178.284V72.2792H182.815V73.8869Z" fill="#176BFE"/>
<path d="M187.391 74.0574C186.934 74.0574 186.472 73.9965 186.003 73.8869C185.528 73.7773 185.089 73.5946 184.687 73.351C184.298 73.1074 183.963 72.7786 183.689 72.3523C183.427 71.9321 183.262 71.4145 183.201 70.7933H185.053C185.162 71.2501 185.345 71.6094 185.589 71.8651C185.832 72.1087 186.106 72.2792 186.417 72.3767C186.74 72.4741 187.062 72.5228 187.391 72.5228C187.89 72.5228 188.305 72.4254 188.633 72.2305C188.974 72.0235 189.145 71.6824 189.145 71.2074C189.145 70.8847 189.029 70.635 188.804 70.4523C188.591 70.2574 188.317 70.1113 187.976 70.0139C187.635 69.9164 187.251 69.8312 186.831 69.7459C186.441 69.6485 186.051 69.551 185.662 69.4536C185.272 69.344 184.913 69.1857 184.59 68.9908C184.261 68.7959 184.005 68.5463 183.81 68.2357C183.616 67.9129 183.518 67.4988 183.518 66.9934C183.518 66.3783 183.664 65.8668 183.957 65.4588C184.249 65.0386 184.645 64.7219 185.15 64.5088C185.668 64.3018 186.246 64.1921 186.88 64.1921C187.495 64.1921 188.073 64.3079 188.609 64.5332C189.145 64.7463 189.596 65.0691 189.973 65.5075C190.345 65.946 190.588 66.5184 190.704 67.2126H188.853C188.737 66.695 188.493 66.3235 188.122 66.0921C187.763 65.8485 187.33 65.7267 186.831 65.7267C186.392 65.7267 186.027 65.8242 185.735 66.019C185.442 66.2017 185.296 66.4758 185.296 66.8472C185.296 67.1395 185.394 67.3709 185.589 67.5293C185.796 67.6937 186.064 67.8216 186.392 67.919C186.733 68.0165 187.099 68.1139 187.489 68.2113C187.878 68.2966 188.274 68.394 188.682 68.5036C189.084 68.6193 189.462 68.7838 189.803 68.9908C190.144 69.2039 190.418 69.478 190.631 69.819C190.838 70.16 190.947 70.5985 190.947 71.1344C190.947 72.0295 190.631 72.742 189.997 73.2779C189.376 73.8016 188.512 74.0574 187.391 74.0574Z" fill="#176BFE"/>
<path d="M191.441 76.0061V75.1535C192.251 75.1048 192.708 74.7455 192.805 74.0817C192.805 73.9843 192.805 73.8747 192.805 73.7407C192.671 73.9356 192.47 74.033 192.196 74.033C191.983 74.033 191.788 73.9417 191.612 73.7651C191.447 73.5885 191.368 73.351 191.368 73.0587C191.368 72.7542 191.466 72.5106 191.66 72.3279C191.855 72.133 192.111 72.0356 192.44 72.0356C192.86 72.0356 193.177 72.1939 193.39 72.4984C193.615 72.809 193.731 73.2048 193.731 73.692C193.731 74.0452 193.658 74.3984 193.512 74.7394C193.366 75.0804 193.122 75.3606 192.781 75.592C192.44 75.8356 191.989 75.9695 191.441 76.0061Z" fill="#176BFE"/>
<path d="M199.025 73.8869H197.222V64.3626H203.555V65.9703H199.025V68.3331H203.093V69.9164H199.025V73.8869Z" fill="#176BFE"/>
<path d="M205.265 73.8869H203.389L206.726 64.3626H208.699L212.061 73.8869H210.185L209.527 71.9382H205.898L205.265 73.8869ZM207.725 66.3357L206.409 70.3549H209.04L207.725 66.3357Z" fill="#176BFE"/>
<path d="M216.164 74.0574C215.707 74.0574 215.244 73.9965 214.775 73.8869C214.3 73.7773 213.862 73.5946 213.46 73.351C213.07 73.1074 212.735 72.7786 212.461 72.3523C212.199 71.9321 212.035 71.4145 211.974 70.7933H213.825C213.935 71.2501 214.117 71.6094 214.361 71.8651C214.605 72.1087 214.879 72.2792 215.189 72.3767C215.512 72.4741 215.835 72.5228 216.164 72.5228C216.663 72.5228 217.077 72.4254 217.406 72.2305C217.747 72.0235 217.917 71.6824 217.917 71.2074C217.917 70.8847 217.802 70.635 217.576 70.4523C217.363 70.2574 217.089 70.1113 216.748 70.0139C216.407 69.9164 216.023 69.8312 215.603 69.7459C215.214 69.6485 214.824 69.551 214.434 69.4536C214.044 69.344 213.685 69.1857 213.362 68.9908C213.033 68.7959 212.778 68.5463 212.583 68.2357C212.388 67.9129 212.29 67.4988 212.29 66.9934C212.29 66.3783 212.437 65.8668 212.729 65.4588C213.021 65.0386 213.417 64.7219 213.923 64.5088C214.44 64.3018 215.019 64.1921 215.652 64.1921C216.267 64.1921 216.846 64.3079 217.381 64.5332C217.917 64.7463 218.368 65.0691 218.746 65.5075C219.117 65.946 219.361 66.5184 219.476 67.2126H217.625C217.509 66.695 217.266 66.3235 216.894 66.0921C216.535 65.8485 216.103 65.7267 215.603 65.7267C215.165 65.7267 214.799 65.8242 214.507 66.019C214.215 66.2017 214.069 66.4758 214.069 66.8472C214.069 67.1395 214.166 67.3709 214.361 67.5293C214.568 67.6937 214.836 67.8216 215.165 67.919C215.506 68.0165 215.871 68.1139 216.261 68.2113C216.651 68.2966 217.047 68.394 217.455 68.5036C217.856 68.6193 218.234 68.7838 218.575 68.9908C218.916 69.2039 219.19 69.478 219.403 69.819C219.61 70.16 219.72 70.5985 219.72 71.1344C219.72 72.0295 219.403 72.742 218.77 73.2779C218.149 73.8016 217.284 74.0574 216.164 74.0574Z" fill="#176BFE"/>
<path d="M224.428 73.8869H222.625V65.9703H219.726V64.3626H227.326V65.9703H224.428V73.8869Z" fill="#176BFE"/>
<path d="M234.036 73.8869H227.703V64.3626H234.036V65.9703H229.506V68.3331H233.574V69.9164H229.506V72.2792H234.036V73.8869Z" fill="#176BFE"/>
<path d="M240.464 69.7703L242.169 73.8869H240.269L238.759 70.0869H236.64V73.8869H234.837V64.3626H238.929C239.526 64.3626 240.056 64.4601 240.513 64.6549C240.963 64.8498 241.316 65.1604 241.56 65.5806C241.816 65.9886 241.95 66.5245 241.95 67.1882C241.95 67.8094 241.81 68.3331 241.536 68.7715C241.274 69.21 240.915 69.5449 240.464 69.7703ZM238.686 65.9703H236.64V68.5036H238.686C239.173 68.5036 239.538 68.4001 239.782 68.1869C240.038 67.9799 240.172 67.6632 240.172 67.237C240.172 66.835 240.038 66.5245 239.782 66.3113C239.52 66.086 239.155 65.9703 238.686 65.9703Z" fill="#176BFE"/>
<path d="M251.372 73.8869H245.55V64.3626H247.353V72.2792H251.372V73.8869Z" fill="#176BFE"/>
<path d="M258.082 73.8869H251.749V64.3626H258.082V65.9703H253.551V68.3331H257.619V69.9164H253.551V72.2792H258.082V73.8869Z" fill="#176BFE"/>
<path d="M260.003 73.8869H258.127L261.465 64.3626H263.438L266.799 73.8869H264.924L264.266 71.9382H260.636L260.003 73.8869ZM262.463 66.3357L261.148 70.3549H263.779L262.463 66.3357Z" fill="#176BFE"/>
<path d="M272.753 69.7703L274.458 73.8869H272.559L271.048 70.0869H268.929V73.8869H267.127V64.3626H271.219C271.816 64.3626 272.345 64.4601 272.802 64.6549C273.253 64.8498 273.606 65.1604 273.85 65.5806C274.105 65.9886 274.239 66.5245 274.239 67.1882C274.239 67.8094 274.099 68.3331 273.825 68.7715C273.563 69.21 273.204 69.5449 272.753 69.7703ZM270.975 65.9703H268.929V68.5036H270.975C271.462 68.5036 271.828 68.4001 272.071 68.1869C272.327 67.9799 272.461 67.6632 272.461 67.237C272.461 66.835 272.327 66.5245 272.071 66.3113C271.809 66.086 271.444 65.9703 270.975 65.9703Z" fill="#176BFE"/>
<path d="M276.911 73.8869H275.108V64.3626H277.13L281.027 71.1831V64.3626H282.83V73.8869H280.784L276.911 67.0664V73.8869Z" fill="#176BFE"/>
<path d="M285.716 73.8869H283.913V64.3626H285.716V73.8869Z" fill="#176BFE"/>
<path d="M288.597 73.8869H286.794V64.3626H288.816L292.714 71.1831V64.3626H294.516V73.8869H292.47L288.597 67.0664V73.8869Z" fill="#176BFE"/>
<path d="M299.862 74.0574C299.065 74.0574 298.376 73.9234 297.792 73.6677C297.219 73.3936 296.744 73.0282 296.355 72.5715C295.965 72.1026 295.679 71.5728 295.502 70.9882C295.319 70.3914 295.234 69.7642 295.234 69.1126C295.234 68.4671 295.319 67.8459 295.502 67.2613C295.679 66.6767 295.965 66.1591 296.355 65.7024C296.744 65.2335 297.219 64.8681 297.792 64.6062C298.376 64.3322 299.065 64.1921 299.862 64.1921C301.092 64.1921 302.079 64.4845 302.81 65.0691C303.54 65.6537 304.003 66.421 304.198 67.3588H302.225C302.061 66.8716 301.787 66.494 301.397 66.2139C301.007 65.9399 300.496 65.7998 299.862 65.7998C299.259 65.7998 298.748 65.946 298.328 66.2383C297.92 66.5306 297.609 66.9325 297.402 67.4318C297.207 67.9373 297.11 68.4975 297.11 69.1126C297.11 69.7459 297.213 70.3183 297.426 70.8177C297.633 71.3231 297.962 71.719 298.401 72.0113C298.839 72.3036 299.381 72.4497 300.033 72.4497C300.776 72.4497 301.373 72.267 301.811 71.8895C302.249 71.518 302.475 70.9517 302.493 70.1844H300.374V68.7229H304.271V73.8869H302.639V72.8151C302.31 73.2901 301.896 73.6129 301.397 73.7895C300.891 73.9661 300.38 74.0574 299.862 74.0574Z" fill="#176BFE"/>
<path d="M305.885 74.033C305.605 74.033 305.373 73.9356 305.178 73.7407C304.984 73.5458 304.886 73.3023 304.886 73.01C304.886 72.7542 304.984 72.5228 305.178 72.3279C305.385 72.133 305.623 72.0356 305.885 72.0356C306.159 72.0356 306.384 72.133 306.567 72.3279C306.762 72.5228 306.859 72.7542 306.859 73.01C306.859 73.3023 306.762 73.5458 306.567 73.7407C306.384 73.9356 306.159 74.033 305.885 74.033Z" fill="#176BFE"/>
</svg>
